<svg xmlns="http://www.w3.org/2000/svg" viewBox="0 0 880 300" width="880" height="300" font-family="'PingFang SC', 'Hiragino Sans GB', 'Microsoft YaHei', Inter, -apple-system, sans-serif" role="img" aria-label="Leo — 让 AI 系统在生产环境稳定运行">
  <rect width="880" height="300" rx="24" fill="#16161C"/>
  <circle cx="150" cy="106" r="98" fill="none" stroke="#4DA3FF" stroke-opacity="0.16" stroke-width="1.5"/>
  <circle cx="150" cy="106" r="70" fill="none" stroke="#4DA3FF" stroke-opacity="0.24" stroke-width="1.5"/>
  <circle cx="150" cy="106" r="44" fill="#4DA3FF" fill-opacity="0.07"/>
  <text x="48" y="122" font-size="64" font-weight="700" letter-spacing="-1.5" fill="#F5F5F7">Leo</text>
  <rect x="50" y="136" width="118" height="4" rx="2" fill="#4DA3FF"/>
  <text x="50" y="178" font-size="20" font-weight="500" fill="#C7C7CC">AI 系统,为生产而打造。</text>
  <circle cx="54" cy="202" r="4" fill="#8985FF"/>
  <text x="64" y="206" font-size="13" fill="#8E8E93">AI 智能体</text>
  <circle cx="150" cy="202" r="4" fill="#4DA3FF"/>
  <text x="160" y="206" font-size="13" fill="#8E8E93">云原生 AI</text>
  <circle cx="252" cy="202" r="4" fill="#2DC79A"/>
  <text x="262" y="206" font-size="13" fill="#8E8E93">推理加速</text>
  <line x1="48" y1="232" x2="430" y2="232" stroke="#2A2A33" stroke-width="1"/>
  <rect x="48" y="248" width="150" height="28" rx="14" fill="#1E1E25" stroke="#2A2A33" stroke-width="1"/>
  <text x="123" y="266" text-anchor="middle" font-size="12" fill="#A0A0A8">Bison 构建者</text>
  <rect x="210" y="248" width="196" height="28" rx="14" fill="#1E1E25" stroke="#2A2A33" stroke-width="1"/>
  <text x="308" y="266" text-anchor="middle" font-size="12" fill="#A0A0A8">著有 2 本工程 Cookbook</text>
  <!-- 三层栈 -->
  <rect x="600" y="64" width="216" height="56" rx="12" fill="#8985FF" fill-opacity="0.16" stroke="#8985FF" stroke-width="1.5"/>
  <circle cx="624" cy="92" r="6" fill="#8985FF"/>
  <text x="642" y="96" font-size="13" font-weight="500" fill="#B7B4FF">AI 智能体</text>
  <rect x="578" y="110" width="216" height="56" rx="12" fill="#4DA3FF" fill-opacity="0.16" stroke="#4DA3FF" stroke-width="1.5"/>
  <circle cx="602" cy="138" r="6" fill="#4DA3FF"/>
  <text x="620" y="142" font-size="13" font-weight="500" fill="#9CC9FF">推理加速</text>
  <rect x="556" y="156" width="216" height="56" rx="12" fill="#2DC79A" fill-opacity="0.16" stroke="#2DC79A" stroke-width="1.5"/>
  <circle cx="580" cy="184" r="6" fill="#2DC79A"/>
  <text x="598" y="188" font-size="13" font-weight="500" fill="#86E3C6">云原生</text>
  <text x="664" y="244" text-anchor="middle" font-size="12" fill="#8E8E93">一套技术栈 · 三层</text>
</svg>
